# Blender 4.2.2 LTS
# www.blender.org
mtllib level 3.mtl
o Cube
v 9.965633 -7.333333 38.855091
v 9.965633 16.666666 38.855091
v 9.965633 -7.333333 14.855091
v 9.965633 16.666666 14.855091
v 33.965633 -7.333333 38.855091
v 33.965633 16.666666 38.855091
v 33.965633 -7.333333 14.855091
v 33.965633 16.666666 14.855091
v -25.978130 -7.333333 14.855091
v -25.978130 -7.333333 38.855091
v -25.978130 28.666666 38.855091
v -25.978130 28.666666 14.855091
v -49.978130 -7.333333 14.855091
v -49.978130 -7.333333 38.855091
v -49.978130 28.666666 38.855091
v -49.978130 28.666666 14.855091
v -25.978130 40.666668 -29.089603
v -25.978130 -7.333333 -29.089603
v -49.978130 40.666668 -29.089603
v -49.978130 -7.333333 -29.089603
v -25.978130 40.666668 -53.089603
v -25.978130 -7.333333 -53.089603
v -49.978130 40.666668 -53.089603
v -49.978130 -7.333333 -53.089603
v 10.021870 64.666664 -29.089603
v 10.021870 -7.333333 -29.089603
v 10.021870 64.666664 -53.089603
v 10.021870 -7.333333 -53.089603
v 9.965633 4.666667 38.855091
v 9.965633 4.666667 14.855091
v 33.965633 4.666667 14.855091
v 33.965633 4.666667 38.855091
v -25.978130 10.666666 38.855091
v -25.978130 10.666666 14.855091
v -49.978130 10.666666 38.855091
v -49.978130 10.666666 14.855091
v -25.978130 16.666666 -29.089603
v -49.978130 16.666666 -29.089603
v -25.978130 16.666666 -53.089603
v -49.978130 16.666666 -53.089603
v 10.021870 52.666668 -29.089603
v 10.021870 52.666668 -53.089603
v 34.021870 64.666664 -29.089603
v 34.021870 64.666664 -53.089603
v 34.021870 52.666668 -29.089603
v 34.021870 52.666668 -53.089603
v 10.021870 76.666664 14.855091
v 10.021870 64.666664 14.855091
v 34.021870 76.666664 14.855091
v 34.021870 64.666664 14.855091
v 10.021870 76.666664 38.855091
v 10.021870 64.666664 38.855091
v 34.021870 76.666664 38.855091
v 34.021870 64.666664 38.855091
v -25.978130 100.666664 14.855091
v -25.978130 88.666664 14.855091
v -25.978130 100.666664 38.855091
v -25.978130 88.666664 38.855091
v -49.978130 100.666664 14.855091
v -49.978130 88.666664 14.855091
v -49.978130 100.666664 38.855091
v -49.978130 88.666664 38.855091
v -25.978130 124.666664 -29.089603
v -25.978130 112.666664 -29.089603
v -49.978130 124.666664 -29.089603
v -49.978130 112.666664 -29.089603
v -25.978130 124.666664 -53.089603
v -25.978130 112.666664 -53.089603
v -49.978130 124.666664 -53.089603
v -49.978130 112.666664 -53.089603
v 9.965633 4.666667 14.855091
v 9.965633 -7.333333 14.855091
v 33.965633 -7.333333 14.855091
v 33.965633 4.666667 14.855091
v 9.965633 -7.333333 -29.089603
v 33.965633 -7.333333 -29.089603
v 9.965633 4.666667 -9.144909
v 9.965633 4.666667 -29.089603
v 33.965633 4.666667 -29.089603
v 9.965633 -7.333333 -9.144909
v 33.965633 -7.333333 -9.144909
v 33.965633 4.666667 -9.144909
v 9.965633 4.666667 -53.089603
v 9.965633 -7.333333 -53.089603
v 33.965633 4.666667 -53.089603
v 33.965633 -7.333333 -53.089603
vn 0.3167 0.9485 -0.0000
vn -0.0000 -1.0000 -0.0000
vn 1.0000 -0.0000 -0.0000
vn -0.0000 -0.0000 1.0000
vn -0.0000 1.0000 -0.0000
vn -0.0000 -0.0000 -1.0000
vn -1.0000 -0.0000 -0.0000
vn -0.0000 0.9647 0.2634
vn -0.5547 0.8321 -0.0000
vn -0.0000 0.9647 -0.2634
vn -0.0000 -0.9647 0.2634
vn -0.5547 -0.8321 -0.0000
vn 0.5547 0.8321 -0.0000
vn -0.0000 -0.8776 -0.4793
vn -0.0000 0.8776 0.4793
vn -0.0000 0.8944 -0.4472
vt 0.875000 0.750000
vt 0.875000 0.500000
vt 0.500000 0.500000
vt 0.500000 0.250000
vt 0.625000 0.500000
vt 0.625000 0.750000
vt 0.500000 0.750000
vt 0.625000 1.000000
vt 0.500000 1.000000
vt 0.125000 0.500000
vt 0.375000 0.500000
vt 0.375000 0.750000
vt 0.125000 0.750000
vt 0.375000 0.250000
vt 0.500000 0.000000
vt 0.625000 0.000000
vt 0.625000 0.250000
vt 0.375000 1.000000
vt 0.375000 0.000000
s 0
f 2/1/1 4/2/1 12/2/1 11/1/1
f 31/3/2 30/4/2 77/4/2 82/3/2
f 31/3/3 8/5/3 6/6/3 32/7/3
f 32/7/4 6/6/4 2/8/4 29/9/4
f 3/10/2 7/11/2 5/12/2 1/13/2
f 8/5/5 4/2/5 2/1/5 6/6/5
f 34/4/3 9/14/3 18/14/3 37/4/3
f 3/10/2 1/13/2 10/13/2 9/10/2
f 30/4/6 3/14/6 9/14/6 34/4/6
f 29/9/4 2/8/4 11/8/4 33/9/4
f 35/15/7 15/16/7 16/17/7 36/4/7
f 33/9/4 11/8/4 15/8/4 35/9/4
f 11/1/5 12/2/5 16/2/5 15/1/5
f 9/10/2 10/13/2 14/13/2 13/10/2
f 19/2/5 17/2/5 21/2/5 23/2/5
f 9/10/2 13/10/2 20/10/2 18/10/2
f 16/2/8 12/2/8 17/2/8 19/2/8
f 36/4/7 16/17/7 19/17/7 38/4/7
f 39/4/6 22/14/6 24/14/6 40/4/6
f 38/4/7 19/17/7 23/17/7 40/4/7
f 18/10/2 20/10/2 24/10/2 22/10/2
f 21/2/9 17/2/9 25/2/9 27/2/9
f 41/4/3 26/14/3 28/14/3 42/4/3
f 39/4/6 21/17/6 27/17/6 42/4/6
f 18/10/2 22/10/2 28/10/2 26/10/2
f 37/4/4 18/14/4 26/14/4 41/4/4
f 17/17/4 37/4/4 41/4/4 25/17/4
f 22/14/6 39/4/6 42/4/6 28/14/6
f 27/2/5 25/2/5 43/2/5 44/2/5
f 20/14/7 38/4/7 40/4/7 24/14/7
f 21/17/6 39/4/6 40/4/6 23/17/6
f 13/14/7 36/4/7 38/4/7 20/14/7
f 10/18/4 33/9/4 35/9/4 14/18/4
f 14/19/7 35/15/7 36/4/7 13/14/7
f 1/18/4 29/9/4 33/9/4 10/18/4
f 4/17/6 30/4/6 34/4/6 12/17/6
f 12/17/3 34/4/3 37/4/3 17/17/3
f 5/12/4 32/7/4 29/9/4 1/18/4
f 7/11/3 31/3/3 32/7/3 5/12/3
f 7/11/5 3/10/5 72/10/5 73/11/5
f 43/17/3 45/4/3 46/4/3 44/17/3
f 41/4/2 42/4/2 46/4/2 45/4/2
f 45/4/3 43/17/3 49/17/3 50/4/3
f 42/4/6 27/17/6 44/17/6 46/4/6
f 49/2/5 47/2/5 51/2/5 53/2/5
f 25/17/7 41/4/7 48/4/7 47/17/7
f 43/2/10 25/2/10 47/2/10 49/2/10
f 41/4/11 45/4/11 50/4/11 48/4/11
f 51/17/4 52/4/4 54/4/4 53/17/4
f 47/17/6 48/4/6 56/4/6 55/17/6
f 48/4/2 50/4/2 54/4/2 52/4/2
f 50/4/3 49/17/3 53/17/3 54/4/3
f 57/2/5 55/2/5 59/2/5 61/2/5
f 48/4/12 52/4/12 58/4/12 56/4/12
f 51/2/13 47/2/13 55/2/13 57/2/13
f 52/4/4 51/17/4 57/17/4 58/4/4
f 59/17/7 60/4/7 62/4/7 61/17/7
f 60/4/7 59/17/7 65/17/7 66/4/7
f 56/4/2 58/4/2 62/4/2 60/4/2
f 58/4/4 57/17/4 61/17/4 62/4/4
f 64/4/2 66/4/2 70/4/2 68/4/2
f 55/17/3 56/4/3 64/4/3 63/17/3
f 56/4/14 60/4/14 66/4/14 64/4/14
f 59/2/15 55/2/15 63/2/15 65/2/15
f 67/17/6 68/4/6 70/4/6 69/17/6
f 66/4/7 65/17/7 69/17/7 70/4/7
f 65/2/5 63/2/5 67/2/5 69/2/5
f 63/17/3 64/4/3 68/4/3 67/17/3
f 72/14/7 71/4/7 77/4/7 80/14/7
f 30/4/5 31/3/5 74/3/5 71/4/5
f 3/14/5 30/4/5 71/4/5 72/14/5
f 31/3/5 7/11/5 73/11/5 74/3/5
f 79/3/3 76/11/3 86/11/3 85/3/3
f 82/3/3 81/11/3 76/11/3 79/3/3
f 30/4/7 4/17/7 77/4/7
f 71/4/5 74/3/5 82/3/5 77/4/5
f 73/11/2 72/10/2 80/10/2 81/11/2
f 4/2/16 8/5/16 82/5/16 77/2/16
f 8/5/3 31/3/3 82/5/3
f 74/3/3 73/11/3 81/11/3 82/3/3
f 77/4/5 82/3/5 79/3/5 78/4/5
f 80/14/7 77/4/7 78/4/7 75/14/7
f 81/11/2 80/10/2 75/10/2 76/11/2
f 84/14/6 83/4/6 85/3/6 86/11/6
f 75/14/7 78/4/7 83/4/7 84/14/7
f 76/11/2 75/10/2 84/10/2 86/11/2
f 78/4/5 79/3/5 85/3/5 83/4/5
o Cube.001
v -25.978130 -7.333333 14.855091
v -25.978130 151.765610 14.855091
v -25.978130 -7.333333 -29.089603
v -25.978130 151.765610 -29.089603
v 10.021870 -7.333333 14.855091
v 10.021870 151.765610 14.855091
v 10.021870 -7.333333 -29.089603
v 10.021870 151.765610 -29.089603
vn -1.0000 -0.0000 -0.0000
vn -0.0000 -0.0000 -1.0000
vn 1.0000 -0.0000 -0.0000
vn -0.0000 -0.0000 1.0000
vn -0.0000 -1.0000 -0.0000
vn -0.0000 1.0000 -0.0000
vt 0.375000 0.000000
vt 0.625000 0.000000
vt 0.625000 0.250000
vt 0.375000 0.250000
vt 0.625000 0.500000
vt 0.375000 0.500000
vt 0.625000 0.750000
vt 0.375000 0.750000
vt 0.625000 1.000000
vt 0.375000 1.000000
vt 0.125000 0.500000
vt 0.125000 0.750000
vt 0.875000 0.500000
vt 0.875000 0.750000
s 0
usemtl Material.001
f 87/20/17 88/21/17 90/22/17 89/23/17
f 89/23/18 90/22/18 94/24/18 93/25/18
f 93/25/19 94/24/19 92/26/19 91/27/19
f 91/27/20 92/26/20 88/28/20 87/29/20
f 89/30/21 93/25/21 91/27/21 87/31/21
f 94/24/22 90/32/22 88/33/22 92/26/22
o Cube.002
v -69.178131 -7.333333 67.588730
v -69.178131 151.765610 67.588730
v -69.178131 -7.333333 -81.823242
v -69.178131 151.765610 -81.823242
v 53.221874 -7.333333 67.588730
v 53.221874 151.765610 67.588730
v 53.221874 -7.333333 -81.823242
v 53.221874 151.765610 -81.823242
v -49.978130 -7.333333 -53.089607
v -49.978130 -7.333333 38.855091
v -49.978130 151.765610 38.855091
v -49.978130 151.765610 -53.089607
v 34.021870 -7.333333 -53.089607
v 34.021870 151.765610 -53.089607
v 34.021870 -7.333333 38.855091
v 34.021870 151.765610 38.855091
vn 1.0000 -0.0000 -0.0000
vn -0.0000 -0.0000 1.0000
vn -1.0000 -0.0000 -0.0000
vn -0.0000 -0.0000 -1.0000
vn -0.0000 -1.0000 -0.0000
vn -0.0000 1.0000 -0.0000
vt 0.375000 0.000000
vt 0.375000 0.250000
vt 0.625000 0.250000
vt 0.625000 0.000000
vt 0.375000 0.500000
vt 0.625000 0.500000
vt 0.375000 0.750000
vt 0.625000 0.750000
vt 0.375000 1.000000
vt 0.625000 1.000000
s 0
usemtl Material.001
f 95/34/23 97/35/23 98/36/23 96/37/23
f 97/35/24 101/38/24 102/39/24 98/36/24
f 101/38/25 99/40/25 100/41/25 102/39/25
f 99/40/26 95/42/26 96/43/26 100/41/26
f 103/35/26 106/36/26 108/39/26 107/38/26
f 104/34/25 105/37/25 106/36/25 103/35/25
f 107/38/23 108/39/23 110/41/23 109/40/23
f 109/40/24 110/41/24 105/43/24 104/42/24
f 102/39/27 100/41/27 110/41/27 108/39/27
f 101/38/28 97/35/28 103/35/28 107/38/28
f 96/37/27 98/36/27 106/36/27 105/37/27
f 100/41/27 96/43/27 105/43/27 110/41/27
f 97/35/28 95/34/28 104/34/28 103/35/28
f 99/40/28 101/38/28 107/38/28 109/40/28
f 98/36/27 102/39/27 108/39/27 106/36/27
f 95/42/28 99/40/28 109/40/28 104/42/28
